<?xml version="1.0" encoding="UTF-8" standalone="no"?>
<!-- Created with Keyshape -->
<svg xmlns="http://www.w3.org/2000/svg" xmlns:xlink="http://www.w3.org/1999/xlink" id="_a0" shape-rendering="geometricPrecision" text-rendering="geometricPrecision" viewBox="0 0 1280 720" style="white-space: pre;">
    <defs>
        <symbol id="Desktop-Computer" preserveAspectRatio="none" width="172.703" height="155.882" viewBox="0 0 172.703 155.882" overflow="visible">
            <g transform="translate(-26.9147,-3.09176)">
                <path d="M3.8,0.4L0.65,0.45L8.21501,109.4L141.2,97.6485" stroke="#000000" fill="none" fill-opacity="0.993671" stroke-linecap="round" transform="translate(26.8,3.2)"/>
                <path d="M0,0L131.4,2L138.4,94.8L7.6,106.6Z" stroke="#000000" fill="none" fill-opacity="0.993671" stroke-linecap="square" transform="translate(30.6,3.6)"/>
                <path d="M0,0L110.891,0.630063L114.041,76.8676L5.0405,84.1134Z" stroke="#000000" fill="none" fill-opacity="0.993671" stroke-linecap="square" transform="translate(43.1593,12.2862)"/>
                <path d="M0,0L-5.9856,19.0819" stroke="#000000" fill="none" fill-opacity="0.993671" stroke-linecap="square" transform="translate(74.0324,109.001)"/>
                <path d="M0,0L-5.35553,17.8218" stroke="#000000" fill="none" fill-opacity="0.993671" stroke-linecap="square" transform="translate(107.426,106.796)"/>
                <path d="M0,0L-7.84081,18.747" stroke="#000000" fill="none" fill-opacity="0.993671" stroke-linecap="square" transform="translate(82.5382,108.686)"/>
                <path d="M0,0L112.781,-11.6562L160.036,4.41044L159.721,11.0261L38.4338,27.0927L1.26013,12.2862Z" stroke="#000000" fill="none" fill-opacity="0.993671" stroke-linecap="square" transform="translate(39.0639,131.368)"/>
                <path d="M0.8,1.4L39.669,20.162L160.351,6.67681" stroke="#000000" fill="none" fill-opacity="0.993671" stroke-linecap="square" transform="translate(38.6456,130.253)"/>
                <path d="M0,0L0.9,-2.2" stroke="#000000" fill="none" fill-opacity="0.993671" stroke-linecap="round" stroke-linejoin="round" transform="translate(168.2,100.7)"/>
            </g>
        </symbol>
        <symbol id="Symbol-5" preserveAspectRatio="none" width="93.387" height="95.9922" viewBox="0 0 93.387 95.9922" overflow="visible">
            <g transform="translate(46.3684,47.6209) translate(-126.436,-84.1503)">
                <path d="M1.8,0.55L28.25,7.3C33.0076,8.41173,35.5,12.2,33.35,18.05L-10.55,84.3C-15.3799,92.9897,-21.8471,95.6425,-29.95,92.2C-37.2741,88.308,-43.0531,84.8485,-49.85,80.3C-51.9153,78.2628,-54.4813,77.4886,-55.95,73.7C-56.6735,71.834,-57.5671,69.3009,-57.15,65.4C-57.0281,64.2594,-56.6609,62.8917,-56.05,61.65C-55.7643,61.0692,-55.5509,60.5375,-55.25,59.95C-55.0909,59.6392,-54.777,59.3397,-54.7,58.95L-8.2,4C-5.59797,0.846479,-2.29782,-0.394432,1.8,0.55Z" stroke="#000000" fill="none" stroke-linecap="round" transform="translate(126.436,84.1503) translate(11.5636,-46.9503)"/>
                <path d="M0.4,0L27.2,6.85C30.0106,7.46385,30.6868,9.02628,30.1,11.15" stroke="#000000" fill="none" stroke-linecap="round" stroke-width="0.5" transform="translate(154.447,44.475) translate(-15.3473,-5.575)"/>
                <path d="M0,0L-45.35,65.8C-50.262,72.528,-56.4568,73.8951,-64.15,69L-85.15,56.75C-87.6704,54.675,-87.5343,51.2737,-85.25,46.8L-39.9,-5.7C-37.1086,-9.70716,-33.9112,-12.0485,-29.9,-11.05" stroke="#000000" fill="none" stroke-width="0.5" stroke-linecap="round" transform="translate(125.749,80.3231) translate(43.5009,-30.3231)"/>
                <path d="M0,0L33.4,9.53333L-6.73333,66.4667L-41.2,48.7333Z" stroke="#000000" fill="none" stroke-width="0.5" stroke-linecap="round" transform="translate(126.9,78.3667) translate(3.9,-33.2334)"/>
                <path d="M0,0L3.88,1.84L0.48,6.16L-3.44,4.12Z" stroke="#000000" fill="none" stroke-width="0.5" stroke-linecap="round" transform="translate(97.98,91.56) translate(-0.22,-3.08)"/>
                <path d="M0,0L3.84,1.92L0.28,6.28L-3.56,4.12Z" stroke="#000000" fill="none" stroke-width="0.5" stroke-linecap="round" transform="translate(105.78,95.3) translate(-0.14,-3.14)"/>
                <path d="M0,0L4.32,2.12L1.36,6.56L-3.36,4.24Z" stroke="#000000" fill="none" stroke-width="0.5" stroke-linecap="round" transform="translate(113.84,99.28) translate(-0.48,-3.28)"/>
                <path d="M0,0L4.84,2.28L1.44,7.12L-3.24,4.68Z" stroke="#000000" fill="none" stroke-width="0.5" stroke-linecap="round" transform="translate(122.8,103.36) translate(-0.8,-3.56)"/>
            </g>
        </symbol>
        <symbol id="Symbol-1" preserveAspectRatio="none" width="748.593" height="497.652" viewBox="0 0 748.593 497.652" overflow="visible">
            <g transform="translate(-147.596,-177.768)">
                <rect width="690.5" height="342.5" stroke="#000000" fill="none" fill-opacity="0.993671" stroke-width="3" rx="50" transform="translate(492.25,338.75) scale(1.00556,0.962525) translate(-341.25,-165.75)"/>
                <rect width="78" height="45" stroke="none" fill="#ffffff" fill-opacity="0.993671" stroke-width="3" rx="50" transform="translate(669.25,509) translate(-41.75,-22.5)"/>
                <path d="M-12.5,1.99969C21,117.624,101.23,170.528,254.5,149.624" stroke="#000000" fill="none" fill-opacity="0.993671" stroke-width="3" stroke-linecap="square" transform="translate(640,508.876)"/>
                <path d="M0,0C12.9037,90.3064,65.7138,148.405,189,149.624" stroke="#000000" fill="none" fill-opacity="0.993671" stroke-width="3" stroke-linecap="square" transform="translate(705.5,508.876)"/>
            </g>
        </symbol>
        <symbol id="Symbol-4" preserveAspectRatio="none" width="44.3066" height="65.0595" viewBox="-1 133.183456 44.306598 65.059526" overflow="visible">
            <g transform="translate(-49.3439,80.5615) scale(0.647184,0.795541)">
                <path d="M0,0L47.4478,0.233733L66.6139,17.7637L67.0814,79.9367L0.934932,79.9367Z" stroke="#000000" fill="none" fill-opacity="0.993671" stroke-width="1.5" stroke-linecap="round" transform="translate(75.262,66.8476)"/>
                <path d="M0,0L22.2046,0.233733" stroke="#000000" fill="none" fill-opacity="0.993671" stroke-width="1.5" stroke-linecap="round" transform="translate(85.0788,86.2475)"/>
                <path d="M0,0L48.3827,-0.233733" stroke="#000000" fill="none" fill-opacity="0.993671" stroke-width="1.5" stroke-linecap="round" transform="translate(85.6638,134.888)"/>
                <path d="M0,0L48.3827,-0.233733" stroke="#000000" fill="none" fill-opacity="0.993671" stroke-width="1.5" stroke-linecap="round" transform="translate(85.6638,122.938)"/>
                <path d="M0,0L48.3827,-0.233733" stroke="#000000" fill="none" fill-opacity="0.993671" stroke-width="1.5" stroke-linecap="round" transform="translate(85.9783,109.731)"/>
                <path d="M0,0L48.3827,-0.233733" stroke="#000000" fill="none" fill-opacity="0.993671" stroke-width="1.5" stroke-linecap="round" transform="translate(85.3494,97.7812)"/>
                <path d="M0.0910101,0.685715L0.233733,18.4649L19.1577,18.9524" stroke="#000000" fill="none" fill-opacity="0.993671" stroke-width="1.5" stroke-linecap="round" transform="translate(122.242,66.8476)"/>
            </g>
        </symbol>
    </defs>
    <text fill="#a28af7" font-size="100" font-family="Arial" letter-spacing="0" word-spacing="0" stroke="#826dcf" fill-rule="nonzero" transform="translate(157.43,113)" style="line-height: 16px;">How Endgame Works</text>
    <g id="devices" transform="translate(673.843,466.389) translate(0,0) translate(-410.42,-218.109)">
        <path id="connector3" d="M137.5,102L603.5,102" stroke="#000000" fill="none" fill-opacity="0.993671" stroke-width="3" transform="translate(-11.4225,185.719)"/>
        <path id="connector2" d="M406.256,-109.465L598.878,6.51774" stroke="#000000" fill="none" fill-opacity="0.993671" stroke-width="3" transform="translate(-11.4225,185.719)"/>
        <path id="connector" d="M173.5,27.5L284.5,-23.5" stroke="#000000" fill="none" fill-opacity="0.993671" stroke-width="3" transform="translate(-11.4225,185.719)"/>
        <g id="Computer" filter="drop-shadow(3px 3px 2px rgba(0,0,0,0.50))" transform="translate(479.79,137.244) scale(1.35137,1.56516) translate(79.6716,35.1357)">
            <g transform="translate(-26.9147,-3.09176)">
                <path d="M3.8,0.4L0.65,0.45L8.21501,109.4L141.2,97.6485" stroke="#000000" fill="none" fill-opacity="0.993671" stroke-linecap="round" transform="translate(26.8,3.2)"/>
                <path d="M0,0L131.4,2L138.4,94.8L7.6,106.6Z" stroke="#000000" fill="none" fill-opacity="0.993671" stroke-linecap="square" transform="translate(30.6,3.6)"/>
                <path d="M0,0L110.891,0.630063L114.041,76.8676L5.0405,84.1134Z" stroke="#000000" fill="none" fill-opacity="0.993671" stroke-linecap="square" transform="translate(43.1593,12.2862)"/>
                <path d="M0,0L-5.9856,19.0819" stroke="#000000" fill="none" fill-opacity="0.993671" stroke-linecap="square" transform="translate(74.0324,109.001)"/>
                <path d="M0,0L-5.35553,17.8218" stroke="#000000" fill="none" fill-opacity="0.993671" stroke-linecap="square" transform="translate(107.426,106.796)"/>
                <path d="M0,0L-7.84081,18.747" stroke="#000000" fill="none" fill-opacity="0.993671" stroke-linecap="square" transform="translate(82.5382,108.686)"/>
                <path d="M0,0L112.781,-11.6562L160.036,4.41044L159.721,11.0261L38.4338,27.0927L1.26013,12.2862Z" stroke="#000000" fill="none" fill-opacity="0.993671" stroke-linecap="square" transform="translate(39.0639,131.368)"/>
                <path d="M0.8,1.4L39.669,20.162L160.351,6.67681" stroke="#000000" fill="none" fill-opacity="0.993671" stroke-linecap="square" transform="translate(38.6456,130.253)"/>
                <path d="M0,0L0.9,-2.2" stroke="#000000" fill="none" fill-opacity="0.993671" stroke-linecap="round" stroke-linejoin="round" transform="translate(168.2,100.7)"/>
            </g>
        </g>
        <use id="-cellPhone-2" width="482.387" height="533.008" xlink:href="#Symbol-5" filter="drop-shadow(3px 3px 2px rgba(0,0,0,0.50))" transform="translate(271.403,-129.418) scale(0.342436,0.34791) translate(-46.6935,371.988)"/>
        <use id="-cellPhone" width="482.387" height="533.008" xlink:href="#Symbol-5" filter="drop-shadow(3px 3px 2px rgba(0,0,0,0.50))" transform="translate(15.9895,62.8187) scale(0.342436,0.34791) translate(-46.6935,371.988)"/>
    </g>
    <g id="Who-has-alice-bubble" visibility="hidden" transform="translate(199.489,406.151) translate(-114.901,-81.616)">
        <use id="bubble-2" width="231.655" height="163.232" xlink:href="#Symbol-1" transform="translate(371.304,248.826) scale(0.992004,1) translate(-374.297,-248.826)"/>
        <text fill="#000000" fill-opacity="0.993671" font-size="40" font-family="Arial" font-weight="400" letter-spacing="0" word-spacing="0" stroke="none" text-anchor="middle" text-decoration="" transform="translate(105.812,52.6759)" style="line-height: 35px;">Who has
user &quot;alice&quot;</text>
    </g>
    <g id="I-do-bubble" visibility="hidden" transform="translate(1122.57,440.518) translate(-72.3944,-54.2694)">
        <g id="bubble-1" transform="translate(-89.154,165.453) scale(-0.193415,0.218102) translate(-1209.54,-758.606)">
            <g transform="translate(-147.596,-177.768)">
                <rect width="690.5" height="342.5" stroke="#000000" fill="none" fill-opacity="0.993671" stroke-width="3" rx="50" transform="translate(492.25,338.75) scale(1.00556,0.962525) translate(-341.25,-165.75)"/>
                <rect width="78" height="45" stroke="none" fill="#ffffff" fill-opacity="0.993671" stroke-width="3" rx="50" transform="translate(669.25,509) translate(-41.75,-22.5)"/>
                <path d="M-12.5,1.99969C21,117.624,101.23,170.528,254.5,149.624" stroke="#000000" fill="none" fill-opacity="0.993671" stroke-width="3" stroke-linecap="square" transform="translate(640,508.876)"/>
                <path d="M0,0C12.9037,90.3064,65.7138,148.405,189,149.624" stroke="#000000" fill="none" fill-opacity="0.993671" stroke-width="3" stroke-linecap="square" transform="translate(705.5,508.876)"/>
            </g>
        </g>
        <text fill="#000000" fill-opacity="0.993671" font-size="40" font-family="Arial" font-weight="400" letter-spacing="0" word-spacing="0" stroke="none" text-anchor="middle" text-decoration="" transform="translate(84.0334,48.1291)" style="line-height: 35px; white-space: pre;">I do!</text>
    </g>
    <g id="data" visibility="hidden" transform="translate(906.258,502.89) translate(0,0) scale(1.33702,1.33445) translate(-26.5697,-140.901)">
        <g transform="translate(-49.3439,80.5615) scale(0.647184,0.795541)">
            <path d="M0,0L47.4478,0.233733L66.6139,17.7637L67.0814,79.9367L0.934932,79.9367Z" stroke="#000000" fill="none" fill-opacity="0.993671" stroke-width="1.5" stroke-linecap="round" transform="translate(75.262,66.8476)"/>
            <path d="M0,0L22.2046,0.233733" stroke="#000000" fill="none" fill-opacity="0.993671" stroke-width="1.5" stroke-linecap="round" transform="translate(85.0788,86.2475)"/>
            <path d="M0,0L48.3827,-0.233733" stroke="#000000" fill="none" fill-opacity="0.993671" stroke-width="1.5" stroke-linecap="round" transform="translate(85.6638,134.888)"/>
            <path d="M0,0L48.3827,-0.233733" stroke="#000000" fill="none" fill-opacity="0.993671" stroke-width="1.5" stroke-linecap="round" transform="translate(85.6638,122.938)"/>
            <path d="M0,0L48.3827,-0.233733" stroke="#000000" fill="none" fill-opacity="0.993671" stroke-width="1.5" stroke-linecap="round" transform="translate(85.9783,109.731)"/>
            <path d="M0,0L48.3827,-0.233733" stroke="#000000" fill="none" fill-opacity="0.993671" stroke-width="1.5" stroke-linecap="round" transform="translate(85.3494,97.7812)"/>
            <path d="M0.0910101,0.685715L0.233733,18.4649L19.1577,18.9524" stroke="#000000" fill="none" fill-opacity="0.993671" stroke-width="1.5" stroke-linecap="round" transform="translate(122.242,66.8476)"/>
        </g>
    </g>
    <g id="send-alice-bubble" visibility="hidden" transform="translate(217,410.5) translate(-103.594,-66.8756)">
        <use id="bubble-3" width="231.655" height="163.232" xlink:href="#Symbol-1" transform="translate(103.594,66.8756) scale(0.894383,0.819394) translate(-115.827,-81.616)"/>
        <text fill="#000000" fill-opacity="0.993671" font-size="40" font-family="Arial" font-weight="400" letter-spacing="0" word-spacing="0" stroke="none" transform="translate(35.5942,44.3493)" style="line-height: 35px;">Send 
&quot;alice&quot;</text>
    </g>
    <g id="Who-has-alice-bubble-2" visibility="hidden" transform="translate(446.489,215.807) translate(-114.901,-81.616)" style="white-space: pre;">
        <use id="bubble-4" width="231.655" height="163.232" xlink:href="#Symbol-1" transform="translate(371.304,248.826) scale(0.992004,1) translate(-374.297,-248.826)"/>
        <text fill="#000000" fill-opacity="0.993671" font-size="40" font-family="Arial" font-weight="400" letter-spacing="0" word-spacing="0" stroke="none" text-anchor="middle" text-decoration="" transform="translate(105.812,52.6759)" style="line-height: 35px;">Who has
user &quot;alice&quot;</text>
    </g>
    <g id="I-do-bubble-2" visibility="hidden" transform="translate(216.727,442.854) translate(-72.3944,-54.2693)">
        <g id="bubble-5" transform="translate(233.943,165.453) scale(0.193415,0.218102) translate(-1209.54,-758.606)">
            <g transform="translate(-147.596,-177.768)">
                <rect width="690.5" height="342.5" stroke="#000000" fill="none" fill-opacity="0.993671" stroke-width="3" rx="50" transform="translate(492.25,338.75) scale(1.00556,0.962525) translate(-341.25,-165.75)"/>
                <rect width="78" height="45" stroke="none" fill="#ffffff" fill-opacity="0.993671" stroke-width="3" rx="50" transform="translate(669.25,509) translate(-41.75,-22.5)"/>
                <path d="M-12.5,1.99969C21,117.624,101.23,170.528,254.5,149.624" stroke="#000000" fill="none" fill-opacity="0.993671" stroke-width="3" stroke-linecap="square" transform="translate(640,508.876)"/>
                <path d="M0,0C12.9037,90.3064,65.7138,148.405,189,149.624" stroke="#000000" fill="none" fill-opacity="0.993671" stroke-width="3" stroke-linecap="square" transform="translate(705.5,508.876)"/>
            </g>
        </g>
        <text fill="#000000" fill-opacity="0.993671" font-size="40" font-family="Arial" font-weight="400" letter-spacing="0" word-spacing="0" stroke="none" text-anchor="middle" text-decoration="" transform="translate(72.3944,45.7928)" style="line-height: 35px; white-space: pre;">I do!</text>
    </g>
    <g id="I-do-bubble-3" visibility="hidden" transform="translate(234,244.281) translate(-72.3944,-54.2693)" style="white-space: pre;">
        <g id="bubble-8" transform="translate(233.943,165.453) scale(0.193415,0.218102) translate(-1209.54,-758.606)">
            <g transform="translate(-147.596,-177.768)">
                <rect width="690.5" height="342.5" stroke="#000000" fill="none" fill-opacity="0.993671" stroke-width="3" rx="50" transform="translate(492.25,338.75) scale(1.00556,0.962525) translate(-341.25,-165.75)"/>
                <rect width="78" height="45" stroke="none" fill="#ffffff" fill-opacity="0.993671" stroke-width="3" rx="50" transform="translate(669.25,509) translate(-41.75,-22.5)"/>
                <path d="M-12.5,1.99969C21,117.624,101.23,170.528,254.5,149.624" stroke="#000000" fill="none" fill-opacity="0.993671" stroke-width="3" stroke-linecap="square" transform="translate(640,508.876)"/>
                <path d="M0,0C12.9037,90.3064,65.7138,148.405,189,149.624" stroke="#000000" fill="none" fill-opacity="0.993671" stroke-width="3" stroke-linecap="square" transform="translate(705.5,508.876)"/>
            </g>
        </g>
        <text fill="#000000" fill-opacity="0.993671" font-size="40" font-family="Arial" font-weight="400" letter-spacing="0" word-spacing="0" stroke="none" text-anchor="middle" text-decoration="" transform="translate(72.3944,45.7928)" style="line-height: 35px; white-space: pre;">I do!</text>
    </g>
    <g id="additional-cell" visibility="hidden" transform="translate(965.262,412.894) translate(-169.762,-145.614)">
        <use id="-cellPhone-3" width="482.387" height="533.008" xlink:href="#Symbol-5" filter="drop-shadow(3px 3px 2px rgba(0,0,0,0.50))" transform="translate(190.326,-129.418) scale(0.342436,0.34791) translate(-46.6935,371.988)"/>
        <path d="M0,0L197,-126.508" stroke="#000000" fill="none" fill-opacity="0.993671" stroke-width="3" stroke-linecap="square" transform="translate(0,291.227)"/>
    </g>
    <g id="Who-has-bob-bubble" visibility="hidden" transform="translate(877.598,255.384) translate(-114.901,-81.616)" style="white-space: pre;">
        <use id="bubble-6" width="231.655" height="163.232" xlink:href="#Symbol-1" transform="translate(371.304,248.826) scale(0.992004,1) translate(-374.297,-248.826)"/>
        <text fill="#000000" fill-opacity="0.993671" font-family="Arial" font-size="40" font-weight="400" letter-spacing="0" stroke="none" text-anchor="middle" text-decoration="" word-spacing="0" transform="translate(105.812,52.6759)" style="line-height: 35px;">Who has
user &quot;bob&quot;</text>
    </g>
    <g id="Who-has-bob-bubble-2" visibility="hidden" transform="translate(661.561,350.384) translate(-114.901,-81.616)" style="white-space: pre;">
        <use id="bubble-7" width="231.655" height="163.232" xlink:href="#Symbol-1" transform="translate(371.304,248.826) scale(0.992004,1) translate(-374.297,-248.826)"/>
        <text fill="#000000" fill-opacity="0.993671" font-family="Arial" font-size="40" font-weight="400" letter-spacing="0" stroke="none" text-anchor="middle" text-decoration="" word-spacing="0" transform="translate(105.812,52.6759)" style="line-height: 35px;">Who has
user &quot;bob&quot;</text>
    </g>
    <script xlink:href="keyshapejs-1.2.1.min.js"/>
    <script><![CDATA[if(KeyshapeJS.version.indexOf('1.')!=0)throw Error('Expected KeyshapeJS v1.*.*');window.ks=document.ks=KeyshapeJS;(function(ks){
var tl=ks.animate("#devices",[{p:'mpath',t:[1200,2000],v:['0%','100%'],e:[[0],[0]],mp:"M673.843,466.389L426.843,462.389"}],
"#connector3",[{p:'stroke',t:[0,300,1000],v:['#000000','#ff001c','#000000'],e:[[3,1],[3,1],[0]]}],
"#Who-has-alice-bubble",[{p:'visibility',t:[0,100,300],v:['hidden','visible','hidden'],e:[[3,1],[3,1],[3,1]],fill:[2,'hidden']}],
"#I-do-bubble",[{p:'visibility',t:[100,200,300,1100,1200],v:['hidden','visible','hidden','visible','hidden'],e:[[3,1],[3,1],[3,1],[3,1],[3,1]],fill:[2,'hidden']}],
"#data",[{p:'mpath',t:[300,1000],v:['0%','100%'],e:[[0],[0]],mp:"M906.258,502.89L353.258,500.127"},{p:'visibility',t:[0,400,1000],v:['hidden','visible','hidden'],e:[[3,1],[3,1],[3,1]],fill:[2,'hidden']}],
"#send-alice-bubble",[{p:'visibility',t:[0,300,1000],v:['hidden','visible','hidden'],e:[[3,1],[3,1],[3,1]],fill:[2,'hidden']}],
"#Who-has-alice-bubble-2",[{p:'visibility',t:[0,1000,1200],v:['hidden','visible','hidden'],e:[[3,1],[3,1],[3,1]],fill:[2,'hidden']}],
"#I-do-bubble-2",[{p:'visibility',t:[0,1000,1100,1200],v:['hidden','hidden','visible','hidden'],e:[[3,1],[3,1],[3,1],[3,1]],fill:[2,'hidden']}],
"#I-do-bubble-3",[{p:'visibility',t:[0,1000,2200],v:['hidden','hidden','visible'],e:[[3,1],[3,1],[3,1]],fill:[2,'hidden']}],
"#additional-cell",[{p:'visibility',t:[0,1000,2000],v:['hidden','hidden','visible'],e:[[3,1],[3,1],[3,1]],fill:[2,'hidden']}],
"#Who-has-bob-bubble",[{p:'visibility',t:[0,2000],v:['hidden','visible'],e:[[3,1],[3,1]],fill:[2,'hidden']}],
"#Who-has-bob-bubble-2",[{p:'visibility',t:[0,2100],v:['hidden','visible'],e:[[3,1],[3,1]],fill:[2,'hidden']}],
{autoremove:false,autoplay:false,markers:{"start":{time: 0},"whoHasAlice":{time: 100},"iDo1":{time: 200},"sendAlice":{time: 300},"whoHasAlice2":{time: 1000},"iDo2":{time: 1100},"whoHasBob":{time: 2000}}}).range(0,2200);
if(document.location.search.substr(1).split('&').indexOf('global=paused')>=0)ks.globalPause();})(KeyshapeJS);
]]></script>
</svg>
